<svg width="12" height="12" viewBox="0 0 12 12" fill="none" xmlns="http://www.w3.org/2000/svg">
<path id="verification-check" fill-rule="evenodd" clip-rule="evenodd" d="M11.5841 6.79741C11.7905 6.54437 12 6.28756 12 6C12 5.71472 11.7957 5.46539 11.5915 5.21617C11.4291 5.01793 11.2667 4.81977 11.2073 4.60365C11.147 4.38446 11.1889 4.12586 11.2307 3.86826C11.2819 3.55258 11.3328 3.23839 11.1951 3C11.0557 2.75861 10.7514 2.64234 10.4481 2.52645C10.2075 2.4345 9.96744 2.34279 9.81098 2.18902C9.65203 2.03281 9.55836 1.78792 9.46465 1.54292C9.34985 1.2428 9.23499 0.942513 9 0.804873C8.76266 0.665862 8.4386 0.717264 8.11692 0.768288C7.86009 0.809026 7.60478 0.849523 7.39634 0.792676C7.19043 0.736518 6.99507 0.577154 6.79741 0.415911C6.54437 0.209495 6.28756 0 6 0C5.71472 0 5.46539 0.204285 5.21617 0.408472C5.01793 0.570889 4.81977 0.733245 4.60366 0.792676C4.38446 0.852955 4.12587 0.811044 3.86826 0.769294C3.55258 0.718133 3.23839 0.667211 3 0.804873C2.75861 0.944267 2.64234 1.24859 2.52645 1.55188C2.4345 1.79254 2.34279 2.03256 2.18902 2.18902C2.03282 2.34797 1.78793 2.44164 1.54292 2.53535C1.2428 2.65015 0.942518 2.76501 0.804878 3C0.665866 3.23734 0.717269 3.5614 0.768294 3.88307C0.809033 4.1399 0.849531 4.39521 0.792683 4.60365C0.736525 4.80957 0.57716 5.00492 0.415916 5.20259C0.209498 5.45562 0 5.71244 0 6C0 6.28528 0.204286 6.53461 0.408475 6.78383C0.570894 6.98206 0.733252 7.18022 0.792683 7.39634C0.852962 7.61553 0.811051 7.87413 0.7693 8.13174C0.718138 8.44741 0.667216 8.76161 0.804878 9C0.944272 9.24139 1.24859 9.35767 1.55188 9.47355C1.79254 9.5655 2.03256 9.65721 2.18902 9.81098C2.34797 9.96719 2.44164 10.2121 2.53535 10.4571C2.65015 10.7572 2.76501 11.0575 3 11.1951C3.23734 11.3341 3.5614 11.2827 3.88307 11.2317C4.1399 11.191 4.39522 11.1505 4.60366 11.2073C4.80957 11.2635 5.00493 11.4228 5.20259 11.5841C5.45563 11.7905 5.71244 12 6 12C6.28528 12 6.53461 11.7957 6.78383 11.5915C6.98207 11.4291 7.18023 11.2667 7.39634 11.2073C7.61554 11.147 7.87413 11.1889 8.13174 11.2307C8.44742 11.2819 8.76161 11.3328 9 11.1951C9.24139 11.0557 9.35767 10.7514 9.47355 10.4481C9.5655 10.2075 9.65721 9.96744 9.81098 9.81098C9.96718 9.65203 10.2121 9.55836 10.4571 9.46465C10.7572 9.34985 11.0575 9.23499 11.1951 9C11.3341 8.76266 11.2827 8.4386 11.2317 8.11692C11.191 7.86009 11.1505 7.60478 11.2073 7.39634C11.2635 7.19043 11.4228 6.99507 11.5841 6.79741ZM8.97867 4.85696C9.20947 4.61918 9.20381 4.23933 8.96603 4.00853C8.72825 3.77773 8.3484 3.78339 8.1176 4.02117L5.52402 6.69318L4.21674 5.34461C3.9861 5.10669 3.60625 5.10078 3.36832 5.33143C3.13039 5.56207 3.12449 5.94192 3.35513 6.17985L5.09294 7.97254C5.2059 8.08907 5.36125 8.15487 5.52355 8.15492C5.68584 8.15497 5.84124 8.08927 5.95428 7.97282L8.97867 4.85696Z" fill="#606D22"/>
</svg>
